# This file uses centimeters as units for non-parametric coordinates.

mtllib box.mtl
g default
v -2.930354 1.296942 0.229771
v -2.930354 1.366226 0.299055
v -2.999639 1.366226 0.229771
v -2.401527 1.366226 0.229771
v -2.470812 1.366226 0.299055
v -2.470812 1.296942 0.229771
v -2.999639 1.825769 0.229771
v -2.930354 1.825769 0.299055
v -2.930354 1.895053 0.229771
v -2.470812 1.895053 0.229771
v -2.470812 1.825769 0.299055
v -2.401527 1.825769 0.229771
v -2.999639 1.825769 -0.229771
v -2.930354 1.895053 -0.229771
v -2.930354 1.825769 -0.299055
v -2.470812 1.825769 -0.299055
v -2.470812 1.895053 -0.229771
v -2.401527 1.825769 -0.229771
v -2.999639 1.366226 -0.229771
v -2.930354 1.366226 -0.299055
v -2.930354 1.296942 -0.229771
v -2.470812 1.296942 -0.229771
v -2.470812 1.366226 -0.299055
v -2.401527 1.366226 -0.229771
vt 0.403960 0.971040
vt 0.375000 0.971040
vt 0.375000 0.778960
vt 0.403960 0.000000
vt 0.403960 0.028960
vt 0.625000 0.971040
vt 0.596040 0.971040
vt 0.625000 0.778960
vt 0.653960 0.028960
vt 0.375000 0.278960
vt 0.375000 0.471040
vt 0.403960 0.221040
vt 0.596040 0.221040
vt 0.625000 0.278960
vt 0.375000 0.528960
vt 0.375000 0.721040
vt 0.403960 0.471040
vt 0.596040 0.471040
vt 0.625000 0.528960
vt 0.625000 0.721040
vt 0.403960 0.721040
vt 0.596040 0.721040
vt 0.596040 0.778960
vt 0.596040 0.028960
vt 0.403960 0.278960
vt 0.596040 0.278960
vt 0.403960 0.528960
vt 0.596040 0.528960
vt 0.403960 0.778960
vt 0.846040 0.028960
vt 0.846040 0.221040
vt 0.153960 0.028960
vt 0.346040 0.028960
vt 0.346040 0.221040
vt 0.153960 0.221040
vt 0.596040 0.000000
vt 0.653960 0.221040
vt 0.625000 0.471040
vn -0.707105 -0.707109 0.000000
vn -0.707105 -0.707109 0.000000
vn -0.707104 -0.707109 0.000000
vn -0.707104 -0.707109 0.000000
vn 0.000000 -0.707107 0.707106
vn 0.000000 -0.707107 0.707106
vn 0.000000 -0.707107 0.707106
vn 0.000000 -0.707107 0.707106
vn -0.707105 0.000000 0.707109
vn -0.707105 0.000000 0.707109
vn -0.707105 0.000000 0.707108
vn -0.707105 0.000000 0.707108
vn 0.707105 -0.707109 0.000000
vn 0.707105 -0.707109 0.000000
vn 0.707104 -0.707109 0.000000
vn 0.707104 -0.707109 0.000000
vn 0.707105 0.000000 0.707108
vn 0.707105 0.000000 0.707108
vn 0.707105 0.000000 0.707109
vn 0.707105 0.000000 0.707109
vn -0.707105 0.707108 0.000000
vn -0.707105 0.707108 0.000000
vn -0.707105 0.707108 0.000000
vn -0.707105 0.707108 0.000000
vn 0.000000 0.707106 0.707107
vn 0.000000 0.707106 0.707107
vn 0.000000 0.707106 0.707107
vn 0.000000 0.707106 0.707107
vn 0.707105 0.707108 0.000000
vn 0.707105 0.707108 0.000000
vn 0.707105 0.707108 0.000000
vn 0.707105 0.707108 0.000000
vn -0.707105 0.000000 -0.707109
vn -0.707105 0.000000 -0.707109
vn -0.707105 0.000000 -0.707108
vn -0.707105 0.000000 -0.707108
vn 0.000000 0.707106 -0.707107
vn 0.000000 0.707106 -0.707107
vn 0.000000 0.707106 -0.707107
vn 0.000000 0.707106 -0.707107
vn 0.707105 0.000000 -0.707108
vn 0.707105 0.000000 -0.707108
vn 0.707105 0.000000 -0.707109
vn 0.707105 0.000000 -0.707109
vn 0.000000 -0.707107 -0.707106
vn 0.000000 -0.707107 -0.707106
vn 0.000000 -0.707107 -0.707106
vn 0.000000 -0.707107 -0.707106
vn 0.000000 0.000000 1.000000
vn 0.000000 0.000000 1.000000
vn 0.000000 0.000000 1.000000
vn 0.000000 0.000000 1.000000
vn 0.000000 1.000000 0.000000
vn 0.000000 1.000000 0.000000
vn 0.000000 1.000000 0.000000
vn 0.000000 1.000000 0.000000
vn 0.000000 0.000000 -1.000000
vn 0.000000 0.000000 -1.000000
vn 0.000000 0.000000 -1.000000
vn 0.000000 0.000000 -1.000000
vn 0.000000 -1.000000 0.000000
vn 0.000000 -1.000000 0.000000
vn 0.000000 -1.000000 0.000000
vn 0.000000 -1.000000 0.000000
vn 1.000000 0.000000 0.000000
vn 1.000000 0.000000 0.000000
vn 1.000000 0.000000 0.000000
vn 1.000000 0.000000 0.000000
vn -1.000000 0.000000 0.000000
vn -1.000000 0.000000 0.000000
vn -1.000000 0.000000 0.000000
vn -1.000000 0.000000 0.000000
vn -0.577348 -0.577352 0.577351
vn -0.577348 -0.577352 0.577351
vn -0.577348 -0.577352 0.577351
vn 0.577348 -0.577352 0.577351
vn 0.577348 -0.577352 0.577351
vn 0.577348 -0.577352 0.577351
vn -0.577349 0.577351 0.577352
vn -0.577349 0.577351 0.577352
vn -0.577349 0.577351 0.577351
vn 0.577349 0.577351 0.577351
vn 0.577349 0.577351 0.577352
vn 0.577349 0.577351 0.577352
vn -0.577349 0.577351 -0.577352
vn -0.577349 0.577351 -0.577351
vn -0.577349 0.577351 -0.577352
vn 0.577349 0.577351 -0.577352
vn 0.577349 0.577351 -0.577351
vn 0.577349 0.577351 -0.577352
vn -0.577348 -0.577352 -0.577351
vn -0.577348 -0.577352 -0.577351
vn -0.577348 -0.577352 -0.577351
vn 0.577348 -0.577352 -0.577351
vn 0.577348 -0.577352 -0.577351
vn 0.577348 -0.577352 -0.577351
s 1
g pCube1
usemtl initialShadingGroup
f 1/1/1 3/2/2 21/29/3
f 21/29/3 3/2/2 19/3/4
s 2
f 2/5/5 1/4/6 5/24/7
f 5/24/7 1/4/6 6/36/8
s 3
f 3/33/9 2/5/10 7/34/11
f 7/34/11 2/5/10 8/12/12
s 4
f 4/6/13 6/7/14 24/8/15
f 24/8/15 6/7/14 22/23/16
s 5
f 5/24/17 4/9/18 11/13/19
f 11/13/19 4/9/18 12/37/20
s 6
f 7/10/21 9/25/22 13/11/23
f 13/11/23 9/25/22 14/17/24
s 7
f 9/25/25 8/12/26 10/26/27
f 10/26/27 8/12/26 11/13/28
s 8
f 10/26/29 12/14/30 17/18/31
f 17/18/31 12/14/30 18/38/32
s 9
f 13/15/33 15/27/34 19/16/35
f 19/16/35 15/27/34 20/21/36
s 10
f 15/27/37 14/17/38 16/28/39
f 16/28/39 14/17/38 17/18/40
s 11
f 16/28/41 18/19/42 23/22/43
f 23/22/43 18/19/42 24/20/44
s 12
f 21/29/45 20/21/46 22/23/47
f 22/23/47 20/21/46 23/22/48
s 13
f 2/5/49 5/24/50 8/12/51
f 8/12/51 5/24/50 11/13/52
s 14
f 9/25/53 10/26/54 14/17/55
f 14/17/55 10/26/54 17/18/56
s 15
f 15/27/57 16/28/58 20/21/59
f 20/21/59 16/28/58 23/22/60
s 16
f 21/29/61 22/23/62 1/1/63
f 1/1/63 22/23/62 6/7/64
s 17
f 4/9/65 24/30/66 12/37/67
f 12/37/67 24/30/66 18/31/68
s 18
f 19/32/69 3/33/70 13/35/71
f 13/35/71 3/33/70 7/34/72
s off
f 1/4/73 2/5/74 3/33/75
f 4/9/76 5/24/77 6/36/78
f 7/34/79 8/12/80 9/25/81
f 10/26/82 11/13/83 12/37/84
f 13/11/85 14/17/86 15/27/87
f 16/28/88 17/18/89 18/38/90
f 19/16/91 20/21/92 21/29/93
f 22/23/94 23/22/95 24/20/96
g default
v 2.384857 1.054402 0.229771
v 2.384857 1.123686 0.299055
v 2.315572 1.123686 0.229771
v 2.913684 1.123686 0.229771
v 2.844399 1.123686 0.299055
v 2.844399 1.054402 0.229771
v 2.315572 1.583229 0.229771
v 2.384857 1.583229 0.299055
v 2.384857 1.652513 0.229771
v 2.844399 1.652513 0.229771
v 2.844399 1.583229 0.299055
v 2.913684 1.583229 0.229771
v 2.315572 1.583229 -0.229771
v 2.384857 1.652513 -0.229771
v 2.384857 1.583229 -0.299055
v 2.844399 1.583229 -0.299055
v 2.844399 1.652513 -0.229771
v 2.913684 1.583229 -0.229771
v 2.315572 1.123686 -0.229771
v 2.384857 1.123686 -0.299055
v 2.384857 1.054402 -0.229771
v 2.844399 1.054402 -0.229771
v 2.844399 1.123686 -0.299055
v 2.913684 1.123686 -0.229771
vt 0.403960 0.971040
vt 0.375000 0.971040
vt 0.375000 0.778960
vt 0.403960 0.000000
vt 0.403960 0.028960
vt 0.625000 0.971040
vt 0.596040 0.971040
vt 0.625000 0.778960
vt 0.653960 0.028960
vt 0.375000 0.278960
vt 0.375000 0.471040
vt 0.403960 0.221040
vt 0.596040 0.221040
vt 0.625000 0.278960
vt 0.375000 0.528960
vt 0.375000 0.721040
vt 0.403960 0.471040
vt 0.596040 0.471040
vt 0.625000 0.528960
vt 0.625000 0.721040
vt 0.403960 0.721040
vt 0.596040 0.721040
vt 0.596040 0.778960
vt 0.596040 0.028960
vt 0.403960 0.278960
vt 0.596040 0.278960
vt 0.403960 0.528960
vt 0.596040 0.528960
vt 0.403960 0.778960
vt 0.846040 0.028960
vt 0.846040 0.221040
vt 0.153960 0.028960
vt 0.346040 0.028960
vt 0.346040 0.221040
vt 0.153960 0.221040
vt 0.596040 0.000000
vt 0.653960 0.221040
vt 0.625000 0.471040
vn -0.707105 -0.707109 0.000000
vn -0.707105 -0.707109 0.000000
vn -0.707104 -0.707109 0.000000
vn -0.707104 -0.707109 0.000000
vn 0.000000 -0.707107 0.707106
vn 0.000000 -0.707107 0.707106
vn 0.000000 -0.707107 0.707106
vn 0.000000 -0.707107 0.707106
vn -0.707105 0.000000 0.707109
vn -0.707105 0.000000 0.707109
vn -0.707105 0.000000 0.707108
vn -0.707105 0.000000 0.707108
vn 0.707105 -0.707109 0.000000
vn 0.707105 -0.707109 0.000000
vn 0.707104 -0.707109 0.000000
vn 0.707104 -0.707109 0.000000
vn 0.707105 0.000000 0.707108
vn 0.707105 0.000000 0.707108
vn 0.707105 0.000000 0.707109
vn 0.707105 0.000000 0.707109
vn -0.707105 0.707108 0.000000
vn -0.707105 0.707108 0.000000
vn -0.707105 0.707108 0.000000
vn -0.707105 0.707108 0.000000
vn 0.000000 0.707106 0.707107
vn 0.000000 0.707106 0.707107
vn 0.000000 0.707106 0.707107
vn 0.000000 0.707106 0.707107
vn 0.707105 0.707108 0.000000
vn 0.707105 0.707108 0.000000
vn 0.707105 0.707108 0.000000
vn 0.707105 0.707108 0.000000
vn -0.707105 0.000000 -0.707109
vn -0.707105 0.000000 -0.707109
vn -0.707105 0.000000 -0.707108
vn -0.707105 0.000000 -0.707108
vn 0.000000 0.707106 -0.707107
vn 0.000000 0.707106 -0.707107
vn 0.000000 0.707106 -0.707107
vn 0.000000 0.707106 -0.707107
vn 0.707105 0.000000 -0.707108
vn 0.707105 0.000000 -0.707108
vn 0.707105 0.000000 -0.707109
vn 0.707105 0.000000 -0.707109
vn 0.000000 -0.707107 -0.707106
vn 0.000000 -0.707107 -0.707106
vn 0.000000 -0.707107 -0.707106
vn 0.000000 -0.707107 -0.707106
vn 0.000000 0.000000 1.000000
vn 0.000000 0.000000 1.000000
vn 0.000000 0.000000 1.000000
vn 0.000000 0.000000 1.000000
vn 0.000000 1.000000 0.000000
vn 0.000000 1.000000 0.000000
vn 0.000000 1.000000 0.000000
vn 0.000000 1.000000 0.000000
vn 0.000000 0.000000 -1.000000
vn 0.000000 0.000000 -1.000000
vn 0.000000 0.000000 -1.000000
vn 0.000000 0.000000 -1.000000
vn 0.000000 -1.000000 0.000000
vn 0.000000 -1.000000 0.000000
vn 0.000000 -1.000000 0.000000
vn 0.000000 -1.000000 0.000000
vn 1.000000 0.000000 0.000000
vn 1.000000 0.000000 0.000000
vn 1.000000 0.000000 0.000000
vn 1.000000 0.000000 0.000000
vn -1.000000 0.000000 0.000000
vn -1.000000 0.000000 0.000000
vn -1.000000 0.000000 0.000000
vn -1.000000 0.000000 0.000000
vn -0.577348 -0.577352 0.577351
vn -0.577348 -0.577352 0.577351
vn -0.577348 -0.577352 0.577351
vn 0.577348 -0.577352 0.577351
vn 0.577348 -0.577352 0.577351
vn 0.577348 -0.577352 0.577351
vn -0.577349 0.577351 0.577352
vn -0.577349 0.577351 0.577352
vn -0.577349 0.577351 0.577351
vn 0.577349 0.577351 0.577351
vn 0.577349 0.577351 0.577352
vn 0.577349 0.577351 0.577352
vn -0.577349 0.577351 -0.577352
vn -0.577349 0.577351 -0.577351
vn -0.577349 0.577351 -0.577352
vn 0.577349 0.577351 -0.577352
vn 0.577349 0.577351 -0.577351
vn 0.577349 0.577351 -0.577352
vn -0.577348 -0.577352 -0.577351
vn -0.577348 -0.577352 -0.577351
vn -0.577348 -0.577352 -0.577351
vn 0.577348 -0.577352 -0.577351
vn 0.577348 -0.577352 -0.577351
vn 0.577348 -0.577352 -0.577351
s 1
g pCube5
usemtl initialShadingGroup
f 25/39/97 27/40/98 45/67/99
f 45/67/99 27/40/98 43/41/100
s 2
f 26/43/101 25/42/102 29/62/103
f 29/62/103 25/42/102 30/74/104
s 3
f 27/71/105 26/43/106 31/72/107
f 31/72/107 26/43/106 32/50/108
s 4
f 28/44/109 30/45/110 48/46/111
f 48/46/111 30/45/110 46/61/112
s 5
f 29/62/113 28/47/114 35/51/115
f 35/51/115 28/47/114 36/75/116
s 6
f 31/48/117 33/63/118 37/49/119
f 37/49/119 33/63/118 38/55/120
s 7
f 33/63/121 32/50/122 34/64/123
f 34/64/123 32/50/122 35/51/124
s 8
f 34/64/125 36/52/126 41/56/127
f 41/56/127 36/52/126 42/76/128
s 9
f 37/53/129 39/65/130 43/54/131
f 43/54/131 39/65/130 44/59/132
s 10
f 39/65/133 38/55/134 40/66/135
f 40/66/135 38/55/134 41/56/136
s 11
f 40/66/137 42/57/138 47/60/139
f 47/60/139 42/57/138 48/58/140
s 12
f 45/67/141 44/59/142 46/61/143
f 46/61/143 44/59/142 47/60/144
s 13
f 26/43/145 29/62/146 32/50/147
f 32/50/147 29/62/146 35/51/148
s 14
f 33/63/149 34/64/150 38/55/151
f 38/55/151 34/64/150 41/56/152
s 15
f 39/65/153 40/66/154 44/59/155
f 44/59/155 40/66/154 47/60/156
s 16
f 45/67/157 46/61/158 25/39/159
f 25/39/159 46/61/158 30/45/160
s 17
f 28/47/161 48/68/162 36/75/163
f 36/75/163 48/68/162 42/69/164
s 18
f 43/70/165 27/71/166 37/73/167
f 37/73/167 27/71/166 31/72/168
s off
f 25/42/169 26/43/170 27/71/171
f 28/47/172 29/62/173 30/74/174
f 31/72/175 32/50/176 33/63/177
f 34/64/178 35/51/179 36/75/180
f 37/49/181 38/55/182 39/65/183
f 40/66/184 41/56/185 42/76/186
f 43/54/187 44/59/188 45/67/189
f 46/61/190 47/60/191 48/58/192
